<?xml version="1.0" encoding="UTF-8"?>
<svg id="Layer_2" xmlns="http://www.w3.org/2000/svg" viewBox="0 0 12.28 12.26">
  <defs>
    <style>
      .cls-1 {
        fill: #e4decc;
      }
    </style>
  </defs>
  <g id="Layer_2-2" data-name="Layer_2">
    <path class="cls-1" d="M12.28,6.12c0,3.39-2.75,6.14-6.14,6.14S0,9.51,0,6.12,2.48.25,5.64,0v6.26l-2.2-2.38c-.19-.2-.5-.22-.7-.03-.21.19-.22.5-.03.71,0,0,2.95,3.19,3.02,3.26s.29.22.41.22.21-.01.42-.22,3.02-3.26,3.02-3.26c.19-.2.17-.52-.03-.71-.2-.18-.52-.17-.71.03l-2.2,2.38V0c3.16.25,5.64,2.9,5.64,6.12Z"/>
  </g>
</svg>