<?xml version="1.0" encoding="UTF-8"?>
<svg id="Layer_2" xmlns="http://www.w3.org/2000/svg" viewBox="0 0 32.21 9.07">
  <defs>
    <style>
      .cls-1 {
        fill: #e4decc;
      }
    </style>
  </defs>
  <g id="Layer_2-2" data-name="Layer_2">
    <g id="Layer_2-2">
      <g>
        <path class="cls-1" d="M2.5,8.2h.02s0,0-.02,0Z"/>
        <path class="cls-1" d="M2.9,3.85h0s0,1.12,1.25.52c.6-.23.71.7.71.7,0,0-.04-.03-.05-.04-.04-.03-.08-.05-.13-.07-.35-.17-.69.07-1.25.11-.41.02-.71-.14-.71-.7v-1.04c0-.56.31-.72.71-.7.55.04.89.28,1.25.11.05-.02.09-.04.13-.07,0,0,.05-.04.05-.04,0,0-.11.93-.71.7-1.25-.6-1.25.5-1.25.52h0Z"/>
        <path class="cls-1" d="M4.85.86h0v1.5c-.01-.18-.05-.58-.54-.58,0,0-.9.03-1.7.03s-.85,2.54-.83,2.54c.36-.02.58-.38.58-.38,0,0-.03.33-.11.52-.07.17-.18.26-.45.27-.03,0-.05.02-.05.05,0,3.18.64,3.39.76,3.4h-1.31c-.44,0-.38-.39-.38-.39,0,0,.05.17.23.17.07,0,.15-.06.15-.16,0-.02,0-3.05,0-3.05,0-.02-.01-.03-.03-.03-.25.02-.35.28-.35.28,0,0-.06-.59.33-.68.02,0,.03-.02.03-.04l.06-2.42c0-.06-.04-.12-.1-.13-.41-.13-.34-.9-.34-.9,0,0,.05.39.38.37h3.12c.49,0,.53-.23.54-.37Z"/>
        <path class="cls-1" d="M4.14,5.76h-.71c-.39,0-.71.14-.71.7v1.04c0,.56.32.7.71.7h.71c.39,0,.71-.14.71-.7v-1.04c0-.56-.32-.7-.71-.7ZM3.79,7.69c-1.23,0-1.16-1.4,0-1.4s1.23,1.4,0,1.4Z"/>
        <path class="cls-1" d="M4.88.13H.79C.43.13.13.42.13.79v7.49c0,.36.3.66.66.66h4.09c.36,0,.66-.3.66-.66V.79c0-.36-.3-.66-.66-.66ZM5.41,8.28c0,.29-.24.53-.53.53H.79c-.29,0-.53-.24-.53-.53V.79C.26.5.5.26.79.26h4.09c.29,0,.53.24.53.53v7.49Z"/>
        <path class="cls-1" d="M4.88,0H.79c-.44,0-.79.35-.79.79v7.49c0,.44.35.79.79.79h4.09c.44,0,.79-.35.79-.79V.79c0-.44-.35-.79-.79-.79ZM5.41,8.28c0,.29-.24.53-.53.53H.79c-.29,0-.53-.24-.53-.53V.79C.26.5.5.26.79.26h4.09c.29,0,.53.24.53.53v7.49Z"/>
      </g>
      <g>
        <path class="cls-1" d="M4.14,5.76h-.71c-.39,0-.71.14-.71.7v1.04c0,.56.32.7.71.7h.71c.39,0,.71-.14.71-.7v-1.04c0-.56-.32-.7-.71-.7ZM3.79,7.69c-1.23,0-1.16-1.4,0-1.4s1.23,1.4,0,1.4Z"/>
        <path class="cls-1" d="M4.86,5.07s-.04-.03-.05-.04c-.04-.03-.08-.05-.13-.07-.35-.17-.69.07-1.25.11-.41.02-.71-.14-.71-.7v-1.04c0-.56.31-.72.71-.7.55.04.89.28,1.25.11.05-.02.09-.04.13-.07,0,0,.05-.04.05-.04,0,0-.11.93-.71.7-1.25-.6-1.25.5-1.25.52h0s0,1.12,1.25.52c.6-.23.71.7.71.7h0Z"/>
        <path class="cls-1" d="M2.5,8.2h.02s0,0-.02,0Z"/>
        <path class="cls-1" d="M4.86.86v1.5c-.01-.18-.05-.58-.54-.58,0,0-.9.03-1.7.03s-.85,2.54-.83,2.54c.36-.02.58-.38.58-.38,0,0-.03.33-.11.52-.07.17-.18.26-.45.27-.03,0-.05.02-.05.05,0,3.18.64,3.39.76,3.4h-1.31c-.44,0-.38-.39-.38-.39,0,0,.05.17.23.17.07,0,.15-.06.15-.16,0-.02,0-3.05,0-3.05,0-.02-.01-.03-.03-.03-.25.02-.35.28-.35.28,0,0-.06-.59.33-.68.02,0,.03-.02.03-.04l.06-2.42c0-.06-.04-.12-.1-.13-.41-.13-.34-.9-.34-.9,0,0,.05.39.38.37h3.12c.49,0,.53-.23.54-.37h0Z"/>
      </g>
    </g>
    <g id="Layer_2-2-2" data-name="Layer_2-2">
      <g>
        <path class="cls-1" d="M7.21,3.12h2.38v.56h-1.71v.67h1.62v.51h-1.62v1.09h-.67v-2.83Z"/>
        <path class="cls-1" d="M11.93,5.95l-.47-.84h-.91v.84h-.67v-2.83h1.49c.76,0,1.16.35,1.16,1.02,0,.39-.19.68-.48.84l.55.98h-.67ZM10.55,4.59h.78c.34,0,.53-.15.53-.46s-.19-.46-.53-.46h-.78v.91Z"/>
        <path class="cls-1" d="M12.83,3.12h.67v2.83h-.67v-2.83Z"/>
        <path class="cls-1" d="M15.95,5.48h-1.4l-.18.47h-.7l1.1-2.83h.95l1.1,2.83h-.7l-.18-.47ZM15.76,4.97l-.45-1.21h-.13l-.45,1.21s1.02,0,1.02,0Z"/>
        <path class="cls-1" d="M16.84,5.08h.61c.02.27.24.44.71.44.44,0,.68-.15.68-.37,0-.2-.16-.29-.5-.35l-.35-.06c-.54-.09-1.07-.24-1.07-.85,0-.54.45-.85,1.24-.85.74,0,1.25.26,1.26.96h-.6c-.04-.26-.24-.43-.67-.43-.38,0-.59.13-.59.35,0,.17.14.28.43.33l.31.05c.54.1,1.2.19,1.2.87,0,.56-.46.88-1.35.88s-1.32-.31-1.31-.97h0Z"/>
        <path class="cls-1" d="M23.21,5.23c.18.11.32.19.43.25s.19.11.25.14c.03.02.04.05.02.09l-.19.38s-.03.04-.06.04c0,0-.03,0-.07-.03s-.09-.05-.14-.08c-.06-.03-.12-.06-.18-.1-.06-.04-.12-.07-.18-.11-.06-.03-.1-.06-.15-.09-.04-.02-.07-.04-.08-.05-.11.1-.24.18-.38.24s-.31.09-.5.09-.35-.01-.49-.05c-.14-.03-.26-.07-.35-.12-.1-.05-.18-.11-.24-.18s-.11-.14-.14-.21-.06-.15-.07-.22c-.01-.07-.02-.14-.02-.2,0-.1.01-.19.05-.27s.07-.15.12-.21c.05-.06.11-.11.17-.15s.13-.07.19-.1c-.11-.17-.16-.33-.16-.48,0-.08.01-.17.04-.27.03-.1.08-.2.16-.29.08-.09.18-.16.32-.23s.31-.09.52-.09c.2,0,.37.03.5.08.13.05.24.11.32.18.02.02.03.05.02.08l-.19.36s-.03.03-.06.03c-.01,0-.02,0-.04-.01-.06-.04-.13-.08-.23-.11-.1-.04-.21-.05-.33-.05-.12,0-.21.01-.27.03s-.11.05-.14.08c-.03.03-.05.07-.05.1s0,.07,0,.1c0,.03,0,.07.03.12s.06.12.13.21.18.2.33.32c.15.13.36.28.62.46.03-.06.07-.13.09-.2.03-.07.05-.14.07-.21s.03-.13.05-.19.02-.1.03-.14c0-.03.03-.05.07-.05l.42.09s.03.01.04.03c0,.01.01.03,0,.04,0,.04-.02.09-.03.15-.01.06-.03.14-.06.22-.02.08-.05.17-.09.26s-.08.19-.12.29h0ZM21.88,5.51c.13,0,.23-.01.32-.03s.16-.05.21-.1c-.19-.13-.37-.26-.54-.39s-.3-.25-.4-.36c-.06.05-.12.1-.16.17s-.07.14-.07.23c0,.03,0,.08.02.13.01.06.04.11.09.16s.11.1.19.13.2.06.34.06h0Z"/>
        <path class="cls-1" d="M25.11,4.53c0-.89.63-1.51,1.55-1.51.62,0,1.26.28,1.4,1.11h-.64c-.12-.36-.4-.53-.75-.53-.5,0-.89.38-.89.93s.38.93.89.93c.35,0,.63-.16.75-.53h.64c-.14.84-.77,1.11-1.4,1.11-.92,0-1.55-.62-1.55-1.51Z"/>
        <path class="cls-1" d="M28.26,4.53c0-.89.63-1.51,1.55-1.51s1.56.62,1.56,1.51-.63,1.51-1.56,1.51-1.55-.62-1.55-1.51ZM30.7,4.53c0-.56-.38-.93-.89-.93s-.89.37-.89.93.39.93.89.93.89-.37.89-.93Z"/>
        <path class="cls-1" d="M31.5,5.65c0-.2.16-.36.36-.36s.36.16.36.36-.16.36-.36.36-.36-.16-.36-.36Z"/>
      </g>
    </g>
  </g>
</svg>