<?xml version="1.0" encoding="UTF-8"?>
<svg id="Layer_2" xmlns="http://www.w3.org/2000/svg" viewBox="0 0 87.31 139.75">
  <defs>
    <style>
      .cls-1 {
        fill: #e4decc;
      }
    </style>
  </defs>
  <g id="Layer_2-2" data-name="Layer_2">
    <g>
      <path class="cls-1" d="M38.6,126.44h.32s-.11.02-.32,0Z"/>
      <path class="cls-1" d="M44.64,59.31h0s0,17.24,19.23,8.06c9.22-3.59,10.98,10.74,10.98,10.74,0,0-.62-.51-.71-.58-.61-.45-1.27-.83-1.97-1.14-5.45-2.67-10.68,1.12-19.24,1.72-6.29.35-11.01-2.15-11.01-10.78v-16.01c0-8.64,4.71-11.14,11.01-10.78,8.55.59,13.79,4.39,19.24,1.72.7-.3,1.36-.69,1.97-1.14.09-.07.71-.58.71-.58,0,0-1.76,14.33-10.98,10.74-19.22-9.18-19.19,7.77-19.22,8.03Z"/>
      <path class="cls-1" d="M74.82,13.28h.02s-.15,23.1-.15,23.1c-.04-2.73-.55-8.93-8.14-8.93,0,0-13.89.39-26.24.39s-13.15,39.18-12.86,39.16c5.52-.37,8.9-5.78,8.9-5.78,0,0-.53,5.11-1.73,7.94-1.13,2.66-2.84,3.98-6.99,4.12-.42.01-.75.35-.75.77,0,49.08,9.81,52.24,11.72,52.39h-20.19c-6.83,0-5.79-5.94-5.79-5.94,0,0,.83,2.62,3.48,2.65,1.02.15,2.31-.91,2.31-2.44-.03-.35,0-47,0-47,0-.25-.22-.46-.47-.44-3.93.3-5.35,4.31-5.35,4.31,0,0-.88-9.06,5.16-10.47.29-.07.5-.32.51-.63l.98-37.26c.02-.95-.6-1.78-1.51-2.07-6.35-2.06-5.2-13.87-5.2-13.87,0,0,.76,6.08,5.87,5.66h48.13c7.58,0,8.24-3.47,8.29-5.66Z"/>
      <path class="cls-1" d="M63.83,88.85h-10.91c-6.08,0-11.01,2.14-11.01,10.78v16.05c0,8.63,4.93,10.78,11.01,10.78h10.91c6.08,0,11.01-2.14,11.01-10.78v-16.05c0-8.63-4.93-10.78-11.01-10.78ZM58.36,118.48c-19.01,0-17.86-21.56.04-21.56s18.98,21.56-.04,21.56Z"/>
      <path class="cls-1" d="M75.15,2H12.17C6.56,2,2,6.55,2,12.17v115.42c0,5.62,4.56,10.17,10.17,10.17h62.98c5.62,0,10.17-4.55,10.17-10.17V12.17c0-5.62-4.55-10.17-10.17-10.17ZM83.31,127.58c0,4.51-3.67,8.17-8.17,8.17H12.17c-4.51,0-8.17-3.67-8.17-8.17V12.17c0-4.51,3.67-8.17,8.17-8.17h62.97c4.51,0,8.17,3.67,8.17,8.17v115.41Z"/>
      <path class="cls-1" d="M75.14,0H12.17C5.45,0,0,5.45,0,12.17v115.41c0,6.72,5.45,12.17,12.17,12.17h62.97c6.72,0,12.17-5.45,12.17-12.17V12.17c0-6.72-5.45-12.17-12.17-12.17ZM83.31,127.58c0,4.51-3.67,8.17-8.17,8.17H12.17c-4.51,0-8.17-3.67-8.17-8.17V12.17c0-4.51,3.67-8.17,8.17-8.17h62.97c4.51,0,8.17,3.67,8.17,8.17v115.41Z"/>
    </g>
    <g>
      <path class="cls-1" d="M63.83,88.85h-10.91c-6.08,0-11.01,2.14-11.01,10.78v16.05c0,8.63,4.93,10.78,11.01,10.78h10.91c6.08,0,11.01-2.14,11.01-10.78v-16.05c0-8.63-4.93-10.78-11.01-10.78ZM58.36,118.48c-19.01,0-17.86-21.56.04-21.56s18.98,21.56-.04,21.56Z"/>
      <path class="cls-1" d="M74.84,78.11s-.62-.51-.71-.58c-.61-.45-1.27-.83-1.97-1.14-5.45-2.67-10.68,1.12-19.24,1.72-6.29.35-11.01-2.15-11.01-10.78v-16.01c0-8.64,4.71-11.14,11.01-10.78,8.55.59,13.79,4.39,19.24,1.72.7-.3,1.36-.69,1.97-1.14.09-.07.71-.58.71-.58,0,0-1.76,14.33-10.98,10.74-19.22-9.18-19.19,7.77-19.22,8.03h0s0,17.24,19.23,8.06c9.22-3.59,10.98,10.74,10.98,10.74Z"/>
      <path class="cls-1" d="M38.6,126.44h.32s-.11.02-.32,0Z"/>
      <path class="cls-1" d="M74.84,13.29l-.15,23.09c-.04-2.73-.55-8.93-8.14-8.93,0,0-13.89.39-26.24.39s-13.15,39.18-12.86,39.16c5.52-.37,8.9-5.78,8.9-5.78,0,0-.53,5.11-1.73,7.94-1.13,2.66-2.84,3.98-6.99,4.12-.42.01-.75.35-.75.77,0,49.08,9.81,52.24,11.72,52.39h-20.19c-6.83,0-5.79-5.94-5.79-5.94,0,0,.83,2.62,3.48,2.65,1.02.15,2.31-.91,2.31-2.44-.03-.35,0-47,0-47,0-.25-.22-.46-.47-.44-3.93.3-5.35,4.31-5.35,4.31,0,0-.88-9.06,5.16-10.47.29-.07.5-.32.51-.63l.98-37.26c.02-.95-.6-1.78-1.51-2.07-6.35-2.06-5.2-13.87-5.2-13.87,0,0,.76,6.08,5.87,5.66h48.13c7.58,0,8.24-3.47,8.29-5.66h.02Z"/>
    </g>
  </g>
</svg>